<?xml version="1.0" encoding="UTF-8"?>
<svg version="1.1" xmlns="http://www.w3.org/2000/svg" width="500" height="500">
<path d="M0 0 C165 0 330 0 500 0 C500 165 500 330 500 500 C335 500 170 500 0 500 C0 335 0 170 0 0 Z " fill="#000000" transform="translate(0,0)"/>
<path d="M0 0 C0.6811084 0.30446045 1.3622168 0.6089209 2.06396484 0.92260742 C4.31912081 1.93266605 6.56964956 2.95263 8.8203125 3.97265625 C10.42436266 4.69341154 12.02869821 5.41353199 13.63330078 6.13305664 C17.88268522 8.04053194 22.12825654 9.95635064 26.37304688 11.87402344 C30.5408406 13.75538514 34.71189431 15.62948419 38.8828125 17.50390625 C44.72540018 20.13030971 50.56686127 22.7591907 56.40701294 25.39100647 C66.9114842 30.12434638 77.4261802 34.83450225 87.9453125 39.53515625 C102.81921568 46.18240902 117.68160307 52.85492094 132.53369141 59.55078125 C140.294229 63.04860154 148.05889522 66.53607187 155.83984375 69.98828125 C157.20958867 70.59725283 158.57929999 71.2063 159.94897461 71.81542969 C162.4619604 72.93300685 164.97738972 74.04480779 167.49438477 75.15332031 C168.58936279 75.64026367 169.68434082 76.12720703 170.8125 76.62890625 C172.23731689 77.25829102 172.23731689 77.25829102 173.69091797 77.90039062 C175.9453125 79.03515625 175.9453125 79.03515625 177.9453125 81.03515625 C178.19140816 83.04601479 178.19140816 83.04601479 178.18582153 85.56558228 C178.18994553 86.99590538 178.18994553 86.99590538 178.19415283 88.4551239 C178.18696228 89.5045668 178.17977173 90.5540097 178.17236328 91.63525391 C178.17265533 92.73769943 178.17294739 93.84014496 178.17324829 94.97599792 C178.17185072 98.63381722 178.1562693 102.29143487 178.140625 105.94921875 C178.13689639 108.47984709 178.1340487 111.01047688 178.13204956 113.54110718 C178.12518361 119.52992131 178.10940762 125.51864837 178.08935058 131.50742757 C178.06701319 138.32474632 178.0560036 145.1420685 178.04595971 151.95941472 C178.02504195 165.98470225 177.98985249 180.00992527 177.9453125 194.03515625 C169.80911005 197.84182675 161.67214459 201.64421635 153.48828125 205.34765625 C152.66842239 205.71932419 151.84856354 206.09099213 151.00386047 206.47392273 C148.38076458 207.66230224 145.75692254 208.84901793 143.1328125 210.03515625 C142.22998535 210.44335602 141.3271582 210.85155579 140.39697266 211.27212524 C128.17440139 216.7957976 115.94233471 222.29817528 103.67959595 227.73217773 C102.19532428 228.39016909 100.71157527 229.04934077 99.22836304 229.7097168 C97.18775215 230.61756918 95.14504792 231.52051524 93.1015625 232.421875 C91.95494141 232.92936279 90.80832031 233.43685059 89.62695312 233.9597168 C86.9453125 235.03515625 86.9453125 235.03515625 84.9453125 235.03515625 C84.9453125 271.00515625 84.9453125 306.97515625 84.9453125 344.03515625 C66.46296582 353.27632959 66.46296582 353.27632959 58.80859375 356.71875 C57.95524948 357.10458755 57.10190521 357.49042511 56.22270203 357.88795471 C54.45691975 358.6850304 52.69038818 359.48044831 50.9230957 360.27416992 C48.21995148 361.48968105 45.52107659 362.71435577 42.82226562 363.93945312 C41.08879015 364.72060373 39.35507514 365.50122306 37.62109375 366.28125 C36.82214188 366.64472031 36.02319 367.00819061 35.20002747 367.38267517 C31.46567008 369.05072949 28.03706347 370.48050688 23.9453125 371.03515625 C23.96625977 371.70571045 23.98720703 372.37626465 24.00878906 373.06713867 C24.09217277 376.11882405 24.14404266 379.17026942 24.1953125 382.22265625 C24.22882813 383.27775391 24.26234375 384.33285156 24.296875 385.41992188 C24.39603132 393.27806038 24.39603132 393.27806038 22.0546875 397.2109375 C18.7274501 400.0883817 16.80330235 400.16999079 12.47338867 400.2121582 C11.32847458 400.22499344 10.18356049 400.23782867 9.00395203 400.25105286 C7.13994499 400.26213326 7.13994499 400.26213326 5.23828125 400.2734375 C3.32925774 400.28554512 3.32925774 400.28554512 1.38166809 400.29789734 C-1.31598562 400.31174852 -4.01351668 400.32276186 -6.71118164 400.33032227 C-10.16136999 400.34137894 -13.61091199 400.37576961 -17.06087208 400.41549397 C-20.35692349 400.44797598 -23.65303167 400.4524406 -26.94921875 400.4609375 C-28.18581741 400.47844559 -29.42241608 400.49595367 -30.69648743 400.51399231 C-31.850858 400.51106674 -33.00522858 400.50814117 -34.19458008 400.50512695 C-35.20780838 400.51099319 -36.22103668 400.51685944 -37.26496887 400.52290344 C-40.82956686 399.89967835 -42.49596931 398.54946713 -45.0546875 396.03515625 C-46.00637433 393.18009576 -46.2447821 391.12578343 -46.37109375 388.1484375 C-46.43393555 386.74174805 -46.43393555 386.74174805 -46.49804688 385.30664062 C-46.53736328 384.33017578 -46.57667969 383.35371094 -46.6171875 382.34765625 C-46.68196289 380.86555664 -46.68196289 380.86555664 -46.74804688 379.35351562 C-46.85410404 376.91420079 -46.95616464 374.47478512 -47.0546875 372.03515625 C-58.59590609 366.63345805 -70.1491302 361.27135093 -81.8359375 356.19140625 C-82.56345215 355.87503204 -83.2909668 355.55865784 -84.04052734 355.23269653 C-87.62912454 353.67438721 -91.2209277 352.12390499 -94.81640625 350.58154297 C-96.13544841 350.01146668 -97.45446033 349.44132041 -98.7734375 348.87109375 C-99.93810547 348.3714209 -101.10277344 347.87174805 -102.30273438 347.35693359 C-105.0546875 346.03515625 -105.0546875 346.03515625 -107.0546875 344.03515625 C-107.30078316 342.0867672 -107.30078316 342.0867672 -107.29519653 339.65658569 C-107.29794586 338.73669357 -107.30069519 337.81680145 -107.30352783 336.86903381 C-107.292742 335.35097389 -107.292742 335.35097389 -107.28173828 333.80224609 C-107.28203033 332.73881485 -107.28232239 331.67538361 -107.28262329 330.57972717 C-107.28122585 327.05176741 -107.26564506 323.52401678 -107.25 319.99609375 C-107.24627135 317.55514644 -107.24342368 315.11419763 -107.24142456 312.67324829 C-107.23377649 306.23864635 -107.21411791 299.80413424 -107.1920166 293.36956787 C-107.17158344 286.80758886 -107.16242826 280.24559538 -107.15234375 273.68359375 C-107.13087314 260.80074285 -107.09710576 247.91795432 -107.0546875 235.03515625 C-107.96546822 234.73738045 -107.96546822 234.73738045 -108.89464855 234.43358898 C-110.09803356 234.03698558 -110.09803356 234.03698558 -111.32572937 233.63237 C-112.11854152 233.3719778 -112.91135366 233.1115856 -113.72819042 232.84330273 C-117.02604782 231.69773849 -120.15914052 230.27483859 -123.32421875 228.8046875 C-123.99095612 228.49709 -124.65769348 228.18949249 -125.34463501 227.87257385 C-126.77630569 227.21174491 -128.20705113 226.5489083 -129.63693237 225.88421631 C-133.49804025 224.08968161 -137.36616169 222.3104052 -141.234375 220.53125 C-142.03554245 220.16247742 -142.8367099 219.79370483 -143.66215515 219.41375732 C-154.04913834 214.64373908 -164.5099422 210.03887214 -174.97387695 205.44067383 C-176.39535741 204.81334181 -177.81682609 204.18598309 -179.23828125 203.55859375 C-179.85273102 203.29035294 -180.46718079 203.02211212 -181.10025024 202.7457428 C-187.20807557 200.04593775 -193.05560458 197.03469771 -199.0546875 194.03515625 C-199.0546875 156.41515625 -199.0546875 118.79515625 -199.0546875 80.03515625 C-185.56272609 73.28917554 -185.56272609 73.28917554 -180.9453125 71.23828125 C-179.88256104 70.76422852 -178.81980957 70.29017578 -177.72485352 69.80175781 C-176.59619873 69.3012793 -175.46754395 68.80080078 -174.3046875 68.28515625 C-172.40633906 67.43942285 -170.50846559 66.59262945 -168.61061096 65.74578857 C-167.25448923 65.14071944 -165.89823444 64.53594843 -164.54185486 63.93145752 C-156.73598726 60.45137853 -148.94487047 56.93862018 -141.15289307 53.42758179 C-122.38716616 44.97295443 -103.60294321 36.56004878 -84.81201172 28.16162109 C-79.13773971 25.62546771 -73.46385668 23.088444 -67.79077148 20.54963684 C-63.77570089 18.75292681 -59.75977952 16.95818314 -55.74169922 15.16821289 C-48.98692745 12.15656962 -42.23891038 9.13503235 -35.53199768 6.01794434 C-32.83871869 4.76657361 -30.14079828 3.52539168 -27.44265747 2.2845459 C-25.60948564 1.43553532 -23.78396771 0.57005917 -21.95874023 -0.29589844 C-20.86634033 -0.79766602 -19.77394043 -1.29943359 -18.6484375 -1.81640625 C-17.70677734 -2.25807129 -16.76511719 -2.69973633 -15.79492188 -3.15478516 C-10.05694646 -4.85102557 -5.20137827 -2.37697394 0 0 Z " fill="#F8F4F4" transform="translate(254.0546875,39.96484375)"/>
<path d="M0 0 C0 33.66 0 67.32 0 102 C-65.77681089 131.75617635 -65.77681089 131.75617635 -78.671875 137.35546875 C-79.83299805 137.86102295 -80.99412109 138.36657715 -82.19042969 138.88745117 C-85 140 -85 140 -87 140 C-87 106.34 -87 72.68 -87 38 C-47.5961327 19.98680352 -47.5961327 19.98680352 -29.54296875 11.9296875 C-25.30696377 10.03831407 -21.08057566 8.12803907 -16.86328125 6.1953125 C-15.92863037 5.76855225 -14.99397949 5.34179199 -14.03100586 4.90209961 C-12.31745263 4.11848647 -10.60586628 3.33055104 -8.89672852 2.53735352 C-3.33460318 0 -3.33460318 0 0 0 Z " fill="#020202" transform="translate(426,128)"/>
<path d="M0 0 C5.75748923 1.91916308 10.84850462 3.71244941 16.26953125 6.23046875 C16.93654053 6.53820221 17.6035498 6.84593567 18.29077148 7.16299438 C19.72271452 7.82396567 21.15373486 8.48693905 22.58389282 9.15176392 C26.43656563 10.94227787 30.29641593 12.71717596 34.15625 14.4921875 C34.95617874 14.86034073 35.75610748 15.22849396 36.58027649 15.60780334 C47.15486099 20.46411875 57.80132095 25.15924393 68.4465332 29.8581543 C69.54227661 30.3426857 69.54227661 30.3426857 70.66015625 30.83700562 C72.01461905 31.43579496 73.36963479 32.03333597 74.7253418 32.62930298 C78.53995918 34.31561989 82.28383914 36.10684801 86 38 C87.04957244 59.36834949 87.12489192 80.69647242 87.06866455 102.08465576 C87.05822937 106.49067691 87.05382479 110.8967043 87.04882812 115.30273438 C87.03826774 123.86850603 87.02131999 132.43424838 87 141 C72.97873106 135.05431018 59.05243872 128.9259441 45.1875 122.625 C43.46297379 121.84356643 41.73836436 121.06231651 40.01367188 120.28125 C26.65808555 114.22551838 13.33106003 108.11006918 0 102 C0 68.34 0 34.68 0 0 Z " fill="#010101" transform="translate(61,128)"/>
<path d="M0 0 C13.47623469 5.85923247 26.9139752 11.71819657 40.25 17.875 C55.1051008 24.72706315 70.04791771 31.35463009 85 38 C85 71.33 85 104.66 85 139 C78.25047944 136.75015981 78.25047944 136.75015981 74.92358398 135.23510742 C74.17577164 134.89637604 73.42795929 134.55764465 72.65748596 134.20864868 C71.46384682 133.66257462 71.46384682 133.66257462 70.24609375 133.10546875 C69.40010117 132.7214389 68.55410858 132.33740906 67.68247986 131.94174194 C64.93292214 130.69301657 62.18521698 129.44026983 59.4375 128.1875 C56.58928681 126.89262068 53.74060258 125.59878217 50.8918457 124.30509949 C48.98691703 123.44002849 47.08213189 122.57464135 45.17749023 121.7089386 C39.47861264 119.11993603 33.77355755 116.54548281 28.05859375 113.9921875 C27.05622932 113.54426598 27.05622932 113.54426598 26.03361511 113.08729553 C22.98503022 111.72584218 19.93531491 110.36699898 16.88452148 109.01049805 C15.28265991 108.29567261 15.28265991 108.29567261 13.6484375 107.56640625 C12.74270996 107.16365479 11.83698242 106.76090332 10.90380859 106.34594727 C7.23120686 104.64365591 3.62058551 102.81029276 0 101 C0 67.67 0 34.34 0 0 Z " fill="#000000" transform="translate(247,128)"/>
<path d="M0 0 C0 33 0 66 0 100 C-17.41373526 108.12640979 -17.41373526 108.12640979 -23.5390625 110.9453125 C-24.26129501 111.27792084 -24.98352753 111.61052917 -25.72764587 111.95321655 C-39.35860083 118.22732089 -52.99535732 124.48934528 -66.67767334 130.65081787 C-67.92494891 131.21276033 -69.1717427 131.77577345 -70.41802979 132.33990479 C-72.1326208 133.1154214 -73.84945942 133.88596306 -75.56640625 134.65625 C-76.52490479 135.08744141 -77.48340332 135.51863281 -78.47094727 135.96289062 C-81 137 -81 137 -85 138 C-85 104.67 -85 71.34 -85 37 C-71.8 31.06 -58.6 25.12 -45 19 C-40.85824219 17.13214844 -36.71648437 15.26429688 -32.44921875 13.33984375 C-27.41210937 11.06835937 -27.41210937 11.06835937 -25.05737305 10.0065918 C-23.411007 9.26388685 -21.76486411 8.52068711 -20.11889648 7.77709961 C-17.62543668 6.65084657 -15.13116469 5.52641065 -12.63671875 4.40234375 C-11.53574104 3.90419411 -11.53574104 3.90419411 -10.41252136 3.39598083 C-2.86655745 0 -2.86655745 0 0 0 Z " fill="#010101" transform="translate(239,129)"/>
<path d="M0 0 C6.74952056 2.24984019 6.74952056 2.24984019 10.07641602 3.76489258 C10.82423843 4.103629 11.57206085 4.44236542 12.34254456 4.79136658 C13.53616859 5.33743309 13.53616859 5.33743309 14.75390625 5.89453125 C15.5998082 6.27851578 16.44571014 6.66250031 17.31724548 7.05812073 C20.0669002 8.30688009 22.81469879 9.55966813 25.5625 10.8125 C29.36536378 12.54151336 33.16905574 14.26870184 36.97265625 15.99609375 C37.91609894 16.42492859 38.85954163 16.85376343 39.83157349 17.29559326 C45.50356826 19.87235764 51.18207748 22.43369711 56.87109375 24.97265625 C57.53460342 25.26890396 58.1981131 25.56515167 58.88172913 25.87037659 C61.8997433 27.21709846 64.91898185 28.56095312 67.93969727 29.90161133 C69.00115967 30.37493896 70.06262207 30.8482666 71.15625 31.3359375 C72.05150391 31.73345215 72.94675781 32.1309668 73.86914062 32.54052734 C78.29026462 34.60146615 82.63708298 36.81854149 87 39 C87 53.19 87 67.38 87 82 C84.36 82.99 81.72 83.98 79 85 C73.73010685 90.38445604 71.8220733 94.29877832 71.375 101.75 C71.30023438 102.92046875 71.22546875 104.0909375 71.1484375 105.296875 C71.07496094 106.63492188 71.07496094 106.63492188 71 108 C70.40832031 108.02578125 69.81664062 108.0515625 69.20703125 108.078125 C63.95018101 108.45545193 60.82251643 109.05802993 57 113 C55.71553081 115.56893838 55.67022856 117.76576337 55.4375 120.625 C55.35371094 121.62789063 55.26992187 122.63078125 55.18359375 123.6640625 C55.09271484 124.82035156 55.09271484 124.82035156 55 126 C51.66287512 125.41996282 48.78478613 124.60672866 45.70385742 123.20581055 C44.48184883 122.65469856 44.48184883 122.65469856 43.2351532 122.092453 C42.36735733 121.6945607 41.49956146 121.2966684 40.60546875 120.88671875 C39.69928299 120.47589554 38.79309723 120.06507233 37.85945129 119.64179993 C35.94449658 118.77251351 34.03067613 117.90072467 32.11791992 117.02661133 C29.21053349 115.69802559 26.29996503 114.37664041 23.38867188 113.05664062 C21.52324605 112.20875441 19.65800562 111.36046017 17.79296875 110.51171875 C16.93124557 110.11989914 16.0695224 109.72807953 15.1816864 109.3243866 C14.35755753 108.94752213 13.53342865 108.57065765 12.68432617 108.18237305 C11.9710466 107.85673874 11.25776703 107.53110443 10.52287292 107.19560242 C6.98786251 105.52034285 3.49889048 103.74944524 0 102 C0 68.34 0 34.68 0 0 Z " fill="#000000" transform="translate(153,278)"/>
<path d="M0 0 C0 33.66 0 67.32 0 102 C-13.49628629 108.74814315 -13.49628629 108.74814315 -19.12890625 111.25390625 C-19.72952377 111.52210678 -20.3301413 111.79030731 -20.94895935 112.06663513 C-22.81902945 112.90110974 -24.69067832 113.73196307 -26.5625 114.5625 C-28.43129864 115.3946709 -30.29975354 116.22760799 -32.1680603 117.06088257 C-33.9707849 117.86414791 -35.77468875 118.66476506 -37.57861328 119.46533203 C-41.67883332 121.30449167 -45.74820871 123.20664819 -49.80834961 125.13256836 C-52 126 -52 126 -55 126 C-55.02578125 125.18015625 -55.0515625 124.3603125 -55.078125 123.515625 C-55.13484375 122.43796875 -55.1915625 121.3603125 -55.25 120.25 C-55.29640625 119.18265625 -55.3428125 118.1153125 -55.390625 117.015625 C-56.11328036 113.43940746 -57.19535741 112.2563666 -60 110 C-62.29629994 108.85185003 -64.07698086 108.69230191 -66.625 108.4375 C-67.85089844 108.31181641 -67.85089844 108.31181641 -69.1015625 108.18359375 C-69.72804688 108.12300781 -70.35453125 108.06242187 -71 108 C-71.03738281 107.13117188 -71.07476562 106.26234375 -71.11328125 105.3671875 C-71.56797719 97.39663513 -71.90219816 92.0289618 -77.8125 86.25 C-81.2442591 83.59775608 -81.2442591 83.59775608 -87 82 C-87 67.81 -87 53.62 -87 39 C-77.1427079 34.07135395 -67.37309606 29.26103375 -57.3125 24.8125 C-56.07681366 24.26275627 -54.84130371 23.71261593 -53.60595703 23.16210938 C-51.04250251 22.02012625 -48.47831206 20.87982052 -45.91357422 19.74072266 C-40.01850134 17.12079278 -34.1328978 14.47972442 -28.24691772 11.83944702 C-26.43351448 11.02624037 -24.61971782 10.21391118 -22.8059082 9.40161133 C-21.11921021 8.64593872 -21.11921021 8.64593872 -19.3984375 7.875 C-18.3269043 7.39546875 -17.25537109 6.9159375 -16.15136719 6.421875 C-14.0274741 5.46358918 -11.90838542 4.49459209 -9.79394531 3.515625 C-8.30652832 2.82726562 -8.30652832 2.82726562 -6.7890625 2.125 C-5.9120166 1.71507812 -5.0349707 1.30515625 -4.13134766 0.8828125 C-2 0 -2 0 0 0 Z " fill="#010101" transform="translate(333,278)"/>
<path d="M0 0 C2.85879199 1.07006246 5.61673823 2.33300214 8.38671875 3.61328125 C9.19347046 3.97912827 10.00022217 4.34497528 10.8314209 4.72190857 C13.45309089 5.91234892 16.07023049 7.11242019 18.6875 8.3125 C20.49679437 9.13587679 22.30644856 9.95846334 24.11645508 10.78027344 C26.8383944 12.01628431 29.56008693 13.25280705 32.28056335 14.49203491 C40.92250249 18.4281535 49.5992741 22.28195129 58.28588867 26.1184082 C65.55883558 29.33789776 72.78646221 32.64958836 80 36 C76.28725661 39.15252568 72.09452468 40.92240105 67.6875 42.88671875 C66.85772644 43.26135757 66.02795288 43.6359964 65.17303467 44.02198792 C62.45106776 45.24919329 59.72582133 46.46888215 57 47.6875 C55.11483157 48.53270525 53.22974119 49.37808461 51.34472656 50.22363281 C48.4488438 51.52219148 45.55263356 52.81999109 42.65533447 54.11538696 C37.08372892 56.6081926 31.52445469 59.12555122 25.97814941 61.67414856 C22.68476939 63.18603897 19.38608709 64.68611108 16.08642578 66.18423462 C14.53617663 66.89138393 12.98828428 67.60372426 11.44287109 68.32138062 C9.29621851 69.31706886 7.14171504 70.29335899 4.984375 71.265625 C4.36117371 71.5604628 3.73797241 71.8553006 3.09588623 72.15907288 C-1.82916761 74.34143839 -4.97267392 74.16761966 -9.9402771 72.25164795 C-12.23489735 71.28163762 -14.49408864 70.25162534 -16.75390625 69.203125 C-17.59985352 68.81768021 -18.44580078 68.43223541 -19.31738281 68.03511047 C-22.06876329 66.77987317 -24.81556265 65.51492676 -27.5625 64.25 C-29.45854468 63.38324896 -31.35495017 62.51728677 -33.25170898 61.65209961 C-37.04918202 59.91953179 -40.84533176 58.1841144 -44.640625 56.44677734 C-51.93077268 53.11367951 -59.2444629 49.83378881 -66.5625 46.5625 C-67.705979 46.05041992 -68.84945801 45.53833984 -70.02758789 45.01074219 C-76.01407327 42.33075373 -82.0045474 39.65986682 -88 37 C-84.42011005 33.98294573 -80.36788819 32.20946496 -76.125 30.33203125 C-75.33952789 29.97972443 -74.55405579 29.6274176 -73.74478149 29.26443481 C-71.16531629 28.10896231 -68.58271541 26.96068692 -66 25.8125 C-64.21254451 25.01351227 -62.42527437 24.21410977 -60.63818359 23.41430664 C-55.09528354 20.93575219 -49.54794003 18.46724766 -44 16 C-42.20733675 15.20219341 -40.4146932 14.40434259 -38.62207031 13.60644531 C-32.06600868 10.68895601 -25.50963525 7.77218814 -18.94921875 4.86450195 C-18.22342621 4.54270966 -17.49763367 4.22091736 -16.74984741 3.88937378 C-15.39800809 3.2901672 -14.04598877 2.69136649 -12.6937561 2.0930481 C-5.23340559 -1.21372309 -5.23340559 -1.21372309 0 0 Z " fill="#010101" transform="translate(247,44)"/>
<path d="M0 0 C0.85274002 0.3881337 1.70548004 0.7762674 2.58406067 1.17616272 C5.35766538 2.4396189 8.1279933 3.71009954 10.8984375 4.98046875 C13.76129305 6.28622101 16.62501737 7.59005391 19.48881531 8.89373779 C21.39379332 9.76103725 23.2985077 10.62891601 25.20295715 11.49737549 C34.05502509 15.5321921 42.93930501 19.49077288 51.83642578 23.42504883 C58.33389189 26.2995313 64.8109572 29.21563066 71.2734375 32.16796875 C68.91382736 34.52757889 66.80799448 35.39823001 63.75390625 36.75 C62.02442749 37.51993286 62.02442749 37.51993286 60.26000977 38.30541992 C58.99366513 38.86379852 57.72730735 39.42214733 56.4609375 39.98046875 C55.15334575 40.56111257 53.84597591 41.14225634 52.53881836 41.72387695 C49.81483885 42.93541164 47.08990848 44.14476896 44.36425781 45.35253906 C39.22951311 47.62927982 34.10300309 49.92427114 28.97802734 52.22290039 C26.55757439 53.30786948 24.13602932 54.39040557 21.71337891 55.47045898 C16.03850912 58.00475743 10.38600488 60.57243964 4.7734375 63.2421875 C3.26317993 63.95338745 3.26317993 63.95338745 1.72241211 64.67895508 C-0.1424144 65.56018537 -2.00149005 66.45373779 -3.85327148 67.36206055 C-4.67641846 67.74918213 -5.49956543 68.13630371 -6.34765625 68.53515625 C-7.0533374 68.87659668 -7.75901855 69.21803711 -8.48608398 69.56982422 C-14.42807817 71.15616897 -19.95935192 67.9294084 -25.234375 65.4765625 C-26.06159058 65.0991391 -26.88880615 64.7217157 -27.74108887 64.33285522 C-30.44750586 63.09667809 -33.14942693 61.85097275 -35.8515625 60.60546875 C-38.67324415 59.31447245 -41.49614929 58.02617983 -44.31918335 56.73814392 C-46.2450077 55.85940036 -48.17048104 54.97988716 -50.09561157 54.09962463 C-59.81719681 49.65789849 -69.57961001 45.3100064 -79.3515625 40.98046875 C-80.91944841 40.28510828 -82.48731993 39.58971536 -84.05517578 38.89428711 C-87.61162817 37.31731637 -91.16883019 35.74204965 -94.7265625 34.16796875 C-94.7265625 33.17796875 -94.7265625 32.18796875 -94.7265625 31.16796875 C-92.95182292 30.37239583 -91.17708333 29.57682292 -89.40234375 28.78125 C-88.24299316 28.26151611 -87.08364258 27.74178223 -85.88916016 27.20629883 C-83.28867327 26.04055035 -80.68807428 24.8750524 -78.08740234 23.7097168 C-70.82557423 20.45548704 -63.56560532 17.19719589 -56.30860901 13.9322052 C-50.93455419 11.51543207 -45.5540784 9.11315342 -40.17285156 6.71240234 C-36.76562715 5.18547534 -33.36696305 3.64060862 -29.96875 2.09375 C-27.88828909 1.1595586 -25.80757368 0.22593372 -23.7265625 -0.70703125 C-22.78312988 -1.14233154 -21.83969727 -1.57763184 -20.86767578 -2.02612305 C-19.9961084 -2.41324463 -19.12454102 -2.80036621 -18.2265625 -3.19921875 C-17.47375 -3.54065918 -16.7209375 -3.88209961 -15.9453125 -4.23388672 C-10.34850157 -5.74271009 -4.98498643 -2.29953593 0 0 Z " fill="#010101" transform="translate(255.7265625,240.83203125)"/>
<path d="M0 0 C11.8704139 2.37408278 22.54064621 7.35376541 33.4375 12.4375 C36.52745449 13.86846708 39.61925565 15.29542588 42.7109375 16.72265625 C43.48504471 17.08077393 44.25915192 17.4388916 45.05671692 17.80786133 C50.24156395 20.20265417 55.44417102 22.55374316 60.6640625 24.87109375 C61.33959671 25.17133957 62.01513092 25.47158539 62.71113586 25.78092957 C65.29048635 26.92632924 67.87025629 28.0706585 70.4538269 29.20651245 C72.20138139 29.97497838 73.94646254 30.74906161 75.69140625 31.5234375 C77.16395874 32.1719165 77.16395874 32.1719165 78.66625977 32.83349609 C81 34 81 34 83 36 C67.48863758 43.28965835 51.91638062 50.42477602 36.25 57.375 C35.50689575 57.7047583 34.7637915 58.0345166 33.99816895 58.37426758 C29.00191359 60.5899766 24.00186748 62.79699389 19 65 C17.88298706 65.49264343 17.88298706 65.49264343 16.7434082 65.99523926 C14.5327393 66.96972415 12.32120522 67.9422168 10.109375 68.9140625 C9.43787415 69.21017426 8.76637329 69.50628601 8.07452393 69.81137085 C5.40315669 70.98262544 2.76920178 72.07693274 0 73 C0 48.91 0 24.82 0 0 Z " fill="#020202" transform="translate(153,87)"/>
<path d="M0 0 C0 23.76 0 47.52 0 72 C-4.35659378 71.12868124 -7.89653693 69.87705818 -11.88671875 68.0703125 C-12.56549576 67.76781586 -13.24427277 67.46531921 -13.94361877 67.15365601 C-16.19386823 66.14913662 -18.44068401 65.13717304 -20.6875 64.125 C-22.26318548 63.41956243 -23.83903509 62.71449137 -25.41503906 62.00976562 C-30.61403044 59.68204467 -35.80749829 57.34215557 -41 55 C-41.94804504 54.57247437 -42.89609009 54.14494873 -43.87286377 53.70446777 C-56.9222701 47.81847741 -69.96385617 41.91530047 -83 36 C-79.31667001 32.87627027 -75.18297897 31.1273756 -70.80859375 29.19140625 C-69.99883087 28.82825317 -69.18906799 28.4651001 -68.35476685 28.09094238 C-65.7178567 26.90985092 -63.0778031 25.73598459 -60.4375 24.5625 C-58.62149949 23.75158769 -56.80566369 22.94030643 -54.98999023 22.12866211 C-51.36139319 20.50753689 -47.73149236 18.88938323 -44.10058594 17.2734375 C-40.26241389 15.56439846 -36.42828139 13.84669883 -32.59757996 12.12098694 C-30.72532979 11.27759893 -28.85223323 10.43612562 -26.97875977 9.59545898 C-24.77234806 8.6053883 -22.56702582 7.61288446 -20.36303711 6.61743164 C-5.54081484 0 -5.54081484 0 0 0 Z " fill="#020202" transform="translate(333,87)"/>
<path d="M0 0 C5.93111894 1.97703965 11.41919211 3.95577258 17.0234375 6.58984375 C17.75940155 6.93071014 18.4953656 7.27157654 19.25363159 7.62277222 C20.82077597 8.34901688 22.38697163 9.07731182 23.95227051 9.80752563 C28.07025734 11.72817735 32.19553681 13.63304526 36.3203125 15.5390625 C37.14325806 15.9197438 37.96620361 16.30042511 38.81408691 16.69264221 C49.26435175 21.51976498 59.78862272 26.17693439 70.32226562 30.81884766 C74.21857409 32.53751472 78.10964741 34.26790171 82 36 C78.67410884 38.75693433 75.07212583 40.45589126 71.140625 42.16015625 C70.11227036 42.61375771 70.11227036 42.61375771 69.06314087 43.07652283 C66.79409011 44.0764561 64.52205949 45.06942459 62.25 46.0625 C59.00676084 47.48850162 55.76509531 48.91806413 52.5234375 50.34765625 C51.67858795 50.7196817 50.8337384 51.09170715 49.96328735 51.4750061 C43.55569286 54.30076389 37.16857876 57.17006132 30.7890625 60.05859375 C29.87330444 60.47287125 28.95754639 60.88714874 28.01403809 61.3139801 C24.40619917 62.9466391 20.7986395 64.57986662 17.19396973 66.21951294 C14.69065408 67.35789553 12.18536635 68.49183077 9.6796875 69.625 C8.55404892 70.13944923 8.55404892 70.13944923 7.40567017 70.66429138 C2.22714654 73 2.22714654 73 0 73 C0 48.91 0 24.82 0 0 Z " fill="#040404" transform="translate(339,86)"/>
<path d="M0 0 C0 24.09 0 48.18 0 73 C-6.74856169 70.75047944 -6.74856169 70.75047944 -10.02880859 69.25097656 C-10.76701843 68.91545273 -11.50522827 68.57992889 -12.26580811 68.23423767 C-13.05207581 67.87334549 -13.83834351 67.51245331 -14.6484375 67.140625 C-15.48658997 66.7591481 -16.32474243 66.3776712 -17.18829346 65.9846344 C-18.98619428 65.16628004 -20.78354148 64.34670848 -22.5803833 63.52603149 C-27.29505022 61.37329854 -32.01430915 59.23070865 -36.734375 57.08984375 C-37.68249054 56.65979538 -38.63060608 56.22974701 -39.60745239 55.78666687 C-48.5819852 51.72335179 -57.59371656 47.74783148 -66.625 43.8125 C-67.31648132 43.51114136 -68.00796265 43.20978271 -68.72039795 42.89929199 C-72.4786145 41.26237789 -76.23845275 39.62924897 -80 38 C-80 37.01 -80 36.02 -80 35 C-79.12939941 34.61481201 -78.25879883 34.22962402 -77.36181641 33.83276367 C-73.11526917 31.95313186 -68.87002919 30.07055726 -64.625 28.1875 C-63.83965881 27.83929199 -63.05431763 27.49108398 -62.24517822 27.13232422 C-52.25329101 22.69988405 -42.27904039 18.23076194 -32.328125 13.70703125 C-30.89024124 13.05386177 -30.89024124 13.05386177 -29.42330933 12.38749695 C-24.70909193 10.24537275 -19.99698055 8.09877635 -15.28759766 5.94604492 C-13.56418786 5.16181417 -11.84072074 4.37770941 -10.1171875 3.59375 C-9.32298401 3.22888992 -8.52878052 2.86402985 -7.71051025 2.4881134 C-2.226822 0 -2.226822 0 0 0 Z " fill="#020202" transform="translate(147,86)"/>
<path d="M0 0 C2.86303876 0.89981218 3.88582989 1.86220849 5.8125 4.1875 C7.3820015 7.90474039 7.00305755 10.13106373 6 14 C5.24783203 14.70576172 5.24783203 14.70576172 4.48046875 15.42578125 C2.54800042 17.48062224 2.57943088 18.78340171 2.4375 21.5625 C2.20833333 25.79166667 2.20833333 25.79166667 0 28 C-3 28.3125 -3 28.3125 -6 28 C-8.14820058 24.77769913 -8.27888652 22.68094494 -8.6484375 18.91015625 C-8.87727852 16.8390772 -8.87727852 16.8390772 -10.5625 15 C-12.42406519 12.40999626 -12.60417384 10.12419069 -12.48046875 6.97265625 C-12 5 -12 5 -9.375 2 C-5.72777543 -0.16131826 -4.14086911 -0.63013226 0 0 Z " fill="#070707" transform="translate(246,399)"/>
<path d="M0 0 C3.81756724 1.69669655 5.48603796 3.14380968 7 7 C7.25432144 10.35704305 7.08876634 13.62687908 7 17 C0.73 17 -5.54 17 -12 17 C-12.60680356 5.9561753 -12.60680356 5.9561753 -9.9375 1.75 C-6.24782972 -0.44810144 -4.23399586 -0.60485655 0 0 Z " fill="#050505" transform="translate(246,369)"/>
</svg>
